<svg width="32" height="32" viewBox="0 0 32 32" fill="none" xmlns="http://www.w3.org/2000/svg">
  <!-- Main Circle -->
  <circle cx="16" cy="16" r="15" fill="url(#gradient1)" stroke="url(#gradient2)" stroke-width="2"/>
  
  <!-- Inner Design Elements -->
  <path d="M8 12C8 9.79086 9.79086 8 12 8H20C22.2091 8 24 9.79086 24 12V20C24 22.2091 22.2091 24 20 24H12C9.79086 24 8 22.2091 8 20V12Z" fill="url(#gradient3)" opacity="0.9"/>
  
  <!-- Exchange Arrows -->
  <path d="M10 14L14 18L18 14" stroke="white" stroke-width="2" stroke-linecap="round" stroke-linejoin="round"/>
  <path d="M22 18L18 14L14 18" stroke="white" stroke-width="2" stroke-linecap="round" stroke-linejoin="round"/>
  
  <!-- Center Dot -->
  <circle cx="16" cy="16" r="2" fill="white"/>
  
  <!-- Decorative Elements -->
  <circle cx="12" cy="12" r="1.5" fill="white" opacity="0.7"/>
  <circle cx="20" cy="12" r="1.5" fill="white" opacity="0.7"/>
  <circle cx="12" cy="20" r="1.5" fill="white" opacity="0.7"/>
  <circle cx="20" cy="20" r="1.5" fill="white" opacity="0.7"/>
  
  <!-- Gradients -->
  <defs>
    <linearGradient id="gradient1" x1="0%" y1="0%" x2="100%" y2="100%">
      <stop offset="0%" stop-color="#4CAF50"/>
      <stop offset="100%" stop-color="#388E3C"/>
    </linearGradient>
    <linearGradient id="gradient2" x1="0%" y1="0%" x2="100%" y2="100%">
      <stop offset="0%" stop-color="#66BB6A"/>
      <stop offset="100%" stop-color="#4CAF50"/>
    </linearGradient>
    <linearGradient id="gradient3" x1="0%" y1="0%" x2="100%" y2="100%">
      <stop offset="0%" stop-color="#388E3C"/>
      <stop offset="100%" stop-color="#2E7D32"/>
    </linearGradient>
  </defs>
</svg>
